<svg xmlns="http://www.w3.org/2000/svg" xmlns:xlink="http://www.w3.org/1999/xlink" aria-hidden="true" role="img" class="iconify iconify--logos" width="32" height="32" preserveAspectRatio="xMidYMid meet" viewBox="0 0 256 256"><path fill="#41D1FF" d="M236.246 23.447c2.656 6.307 2.215 13.921-2.906 18.966L135.253 194.88c-4.225 3.931-10.45 4.63-15.352 1.761L25.337 131.6l-5.69 11.662a14.75 14.75 0 0 0 6.645 19.336l92.533 46.177c6.115 3.018 13.336 2.378 18.793-1.743l104.578-163.63c5.441-5.748 4.671-15.011-1.393-19.955z"></path><path fill="#BD34FE" d="M129.566 200.748c-4.329 4.298-10.606 4.965-15.54 1.696L19.492 131.662c-5.83-3.08-8.583-10.366-5.895-16.711l35.63-104.72c2.261-6.623 10.39-9.61 16.324-6.078l167.31 106.314c6.234 4.093 7.828 12.396 3.491 18.47l-106.786 171.81z"></path></svg>
